<svg id="Layer_1" enable-background="new 0 0 64 64" viewBox="0 0 64 64" xmlns="http://www.w3.org/2000/svg"><path d="m1.93 51.54c-.56 4.46-2.68-8.83-.91-12.96-.15 2.03-.3 4.07-.45 6.1 1.01-5.59 3.22-10.96 6.43-15.64l.13 2.68c1.09-2.14 2.19-4.28 3.28-6.42.99-1.93 1.99-3.89 3.42-5.53 1.81-2.09 4.23-3.58 6.54-5.06 2.82-1.81 5.71-3.49 8.64-5.12 2.79-1.55 5.54-3.24 8.52-4.41 1.9-.75 3.88-1.28 5.85-1.81 6.65-1.78 13.42-3.57 20.3-3.35-.47 1.5-1.11 2.95-1.88 4.31-.49.86-1.05 1.7-1.82 2.31-.71.56-1.56.89-2.4 1.22-3.07 1.19-6.14 2.39-9.21 3.58 2.47.09 4.97-.35 7.26-1.3l-17.93 13.14c1.76-.25 3.48-.77 5.09-1.53-.75 2.24-2.94 3.59-4.75 5.11-6.56 5.52-9.11 14.84-15.94 20.02-2.79 2.12-6.2 3.42-9.69 3.7 1.46.73 3.08 1.13 4.71 1.18-2.36.97-4.9 1.5-7.44 1.54 1.32.82 2.82 1.35 4.36 1.54-2.79 1.44-6.5.79-8.63-1.52.78 1.33 1.8 2.52 2.99 3.5-1.85-.46-3.51-1.63-4.55-3.22 0 0-1.65 8.22-1.51 10.31l-1.12.08s-1.3-13.64 12.3-33.47c0 0 11.57-19.42 44.99-28.69 0 0-19.56.53-40.21 20.9-1.78 1.76-3.52 3.55-5.01 5.56-3.72 5.02-10.32 14.94-11.36 23.25z" fill="rgb(0,0,0)"/></svg>