<svg fill="none" height="320" viewBox="0 0 320 320" width="320" xmlns="http://www.w3.org/2000/svg">
<path d="m197.75 223.625c0 8 2.958 12 8.875 12 3.5 0 6.667-.75 9.5-2.25 2.917-1.5 4.792-2.25 5.625-2.25 1.75 0 2.625.917 2.625 2.75 0 7.333-3.917 13.5-11.75 18.5-5.333 3.5-10.417 5.25-15.25 5.25s-8.75-.542-11.75-1.625c-2.917-1.167-5.458-2.958-7.625-5.375-4.583-5-6.875-12.458-6.875-22.375 0-7.833 1.458-16.917 4.375-27.25s5.042-17.667 6.375-22l-13 19.75c-26.917 39.25-49.625 58.875-68.125 58.875-12.5833 0-20.875-5.25-24.875-15.75-1.25-3.417-1.875-6.417-1.875-9v-4.75c0-10.5 5.875-29.75 17.625-57.75l26-60.5c5-12 7.5-19.4167 7.5-22.25s-.5-4.9583-1.5-6.375-2.125-2.5417-3.375-3.375l-3.375-2.5c-1-.6667-1.5-1.6667-1.5-3s.667-2.6667 2-4 3.083-2.5 5.25-3.5c4.333-1.9167 8.583-2.875 12.75-2.875 4.25 0 7.5.4583 9.75 1.375 2.333.8333 4.25 1.9167 5.75 3.25 2.917 2.75 4.375 6.0833 4.375 10 0 3.8333-.75 8.375-2.25 13.625-1.417 5.25-3.333 11-5.75 17.25-2.333 6.167-5.042 12.708-8.125 19.625l-19 41.75c-12.083 26.583-18.125 44.167-18.125 52.75v1.875c0 7.917 3 11.875 9 11.875 11 0 25.292-13.792 42.875-41.375 5.25-8.167 10.5-16.792 15.75-25.875l15.25-28c21.833-42.25 34.417-66.3333 37.75-72.25 1.667-3 4.042-4.5 7.125-4.5s5.667.4583 7.75 1.375c2.083.8333 3.875 1.9583 5.375 3.375 3.5 3.3333 4.375 6.6667 2.625 10-7.917 15.0833-17.542 39.208-28.875 72.375-12.583 36.5-18.875 60.875-18.875 73.125z" fill="#3d2b1f"/>
</svg>