<svg fill="none" height="32" viewBox="0 0 32 32" width="32" xmlns="http://www.w3.org/2000/svg">
  <!-- 背景色块 -->
  <rect width="32" height="32" rx="6" fill="url(#gradient)" />
  
  <!-- 字母M -->
  <path d="m27.7875 23.1125c0.2083 0 0.3125 0.15 0.3125 0.45 0 0.2917-0.0542 0.5333-0.1625 0.725s-0.2333 0.3667-0.375 0.525-0.3208 0.3083-0.5375 0.45c-0.5083 0.3333-1.0458 0.5-1.6125 0.5-0.5583 0-1.0042-0.0667-1.3375-0.2-0.325-0.1417-0.6083-0.35-0.85-0.625-0.5167-0.575-0.775-1.3708-0.775-2.3875 0-1.0833 0.2083-2.4042 0.625-3.9625 0.4167-1.5667 0.8167-2.9042 1.2-4.0125 0.3917-1.1167 0.7917-2.1792 1.2-3.1875l1.125-2.8625c-1.2333 1.10833-2.7958 3.4375-4.6875 6.9875l-3.025 5.725c-1.6167 3.0167-2.7708 4.525-3.4625 4.525-0.675 0-1.1375-0.2917-1.3875-0.875-0.225-0.5583-0.3375-1.5042-0.3375-2.8375 0-1.3417 0.1042-2.625 0.3125-3.85 0.2167-1.2333 0.4875-2.4375 0.8125-3.6125 0.5667-2.075 1.3-4.1333 2.2-6.175-0.875 0.49167-1.8458 1.5875-2.9125 3.2875-0.8167 1.3583-1.3917 2.35-1.725 2.975l-3.225 5.9375c-1.34167 2.4417-2.42083 3.95-3.2375 4.525-0.59167 0.4167-1.22917 0.625-1.9125 0.625-0.58333 0-1.00417-0.1833-1.2625-0.55-0.1-0.15-0.15-0.2875-0.15-0.4125s0.0375-0.2 0.1125-0.225c0.51667-0.1417 0.88333-0.2875 1.1-0.4375 0.20833-0.1583 0.41667-0.3167 0.625-0.475 0.20833-0.1667 0.5125-0.5125 0.9125-1.0375 0.4-0.5333 0.83333-1.1708 1.3-1.9125 0.46667-0.75 0.95417-1.5875 1.4625-2.5125l1.5875-2.925c1.4667-2.8333 3-5.1042 4.6-6.8125 0.5667-0.60833 1.125-1.07917 1.675-1.4125 0.55-0.39167 1.1875-0.65417 1.9125-0.7875 0.2-0.04167 0.3833-0.0625 0.55-0.0625 0.175 0 0.3667.025 0.575.075 0.2167.05 0.4042.12917 0.5625.2375 0.3667.25 0.475 0.58333 0.325 1-.0667.25-0.1958.625-0.3875 1.125l-0.675 1.7875c-1.575 4.35-2.4375 8.3083-2.5875 11.875 0.4417-0.7583 0.8875-1.5875 1.3375-2.4875l1.4125-2.7875 1.4875-2.8375c2.2917-4.25 4.4208-6.68333 6.3875-7.3 0.4083-0.13333 0.75-0.2 1.025-0.2s0.4917.0375 0.65.1125c0.1583.06667 0.3.15417 0.425.2625 0.2917.26667 0.3917.54167 0.3.825-.0917.275-0.2125.62917-0.3625 1.0625l-1.8125 5.2875-0.65 2.075c-0.7167 2.4-1.1417 4.2417-1.275 5.525-0.05.5417.0083.9667 0.175 1.275 0.175.3 0.4125.45 0.7125.45s0.5333-.0208 0.7-.0625c0.175-.05 0.325-0.1042 0.45-0.1625l0.325-0.15c0.0917-.05 0.175-.075 0.25-.075z" fill="white"/>
  
  <!-- 渐变定义 -->
  <defs>
    <linearGradient id="gradient" x1="0%" y1="0%" x2="100%" y2="100%">
      <stop offset="0%" style="stop-color:#8b5cf6;stop-opacity:1" />
      <stop offset="100%" style="stop-color:#06b6d4;stop-opacity:1" />
    </linearGradient>
  </defs>
</svg>
