<svg fill="none" height="320" viewBox="0 0 320 320" width="320" xmlns="http://www.w3.org/2000/svg">
  <!-- 背景色块 -->
  <rect width="320" height="320" rx="64" fill="url(#gradient)" />
  
  <!-- 字母M -->
  <path d="m277.875 231.125c2.083 0 3.125 1.5 3.125 4.5 0 2.917-.542 5.333-1.625 7.25s-2.333 3.667-3.75 5.25-3.208 3.083-5.375 4.5c-5.083 3.333-10.458 5-16.125 5-5.583 0-10.042-.667-13.375-2-3.25-1.417-6.083-3.5-8.5-6.25-5.167-5.75-7.75-13.708-7.75-23.875 0-10.833 2.083-24.042 6.25-39.625 4.167-15.667 8.167-29.042 12-40.125 3.917-11.167 7.917-21.792 12-31.875l11.25-28.625c-12.333 11.0833-27.958 34.375-46.875 69.875l-30.25 57.25c-16.167 30.167-27.708 45.25-34.625 45.25-6.75 0-11.375-2.917-13.875-8.75-2.25-5.583-3.375-15.042-3.375-28.375 0-13.417 1.042-26.25 3.125-38.5 2.167-12.333 4.875-24.375 8.125-36.125 5.667-20.75 13-41.333 22-61.75-8.75 4.9167-18.458 15.875-29.125 32.875-8.167 13.583-13.917 23.5-17.25 29.75l-32.25 59.375c-13.4167 24.417-24.2083 39.5-32.375 45.25-5.9167 4.167-12.2917 6.25-19.125 6.25-5.8333 0-10.0417-1.833-12.625-5.5-1-1.5-1.5-2.875-1.5-4.125s0.375-2 1.125-2.25c5.1667-1.417 8.8333-2.875 11-4.375 2.0833-1.583 4.1667-3.167 6.25-4.75 2.0833-1.667 5.125-5.125 9.125-10.375 4-5.333 8.3333-11.708 13-19.125 4.6667-7.5 9.5417-15.875 14.625-25.125l15.875-29.25c14.667-28.333 30-51.042 46-68.125 5.667-6.0833 11.25-10.7917 16.75-14.125 5.5-3.9167 11.875-6.5417 19.125-7.875 2-.4167 3.833-.625 5.5-.625 1.75 0 3.667.25 5.75.75 2.167.5 4.042 1.2917 5.625 2.375 3.667 2.5 4.75 5.8333 3.25 10-.667 2.5-1.958 6.25-3.875 11.25l-6.75 17.875c-15.75 43.5-24.375 83.083-25.875 118.75 4.417-7.583 8.875-15.875 13.375-24.875l14.125-27.875 14.875-28.375c22.917-42.5 44.208-66.8333 63.875-73 4.083-1.3333 7.5-2 10.25-2s4.917.375 6.5 1.125c1.583.6667 3 1.5417 4.25 2.625 2.917 2.6667 3.917 5.4167 3 8.25-.917 2.75-2.125 6.2917-3.625 10.625l-18.125 52.875-6.5 20.75c-7.167 24-11.417 42.417-12.75 55.25-.5 5.417.083 9.667 1.75 12.75 1.75 3 4.125 4.5 7.125 4.5s5.333-.208 7-.625c1.75-.5 3.25-1.042 4.5-1.625l3.25-1.5c0.917-.5 1.75-.75 2.5-.75z" fill="white"/>
  
  <!-- 渐变定义 -->
  <defs>
    <linearGradient id="gradient" x1="0%" y1="0%" x2="100%" y2="100%">
      <stop offset="0%" style="stop-color:#8b5cf6;stop-opacity:1" />
      <stop offset="100%" style="stop-color:#06b6d4;stop-opacity:1" />
    </linearGradient>
  </defs>
</svg>
