<svg viewBox="0 0 200 200" xmlns="http://www.w3.org/2000/svg">
  <!-- 淡棕色背景 -->
  <rect x="0" y="0" width="200" height="200" fill="#e8d5c4"/>
  
  <!-- 羽毛背景 - 简化版，适合小尺寸 -->
  <g transform="translate(140, 60) rotate(-20) scale(0.6)" opacity="0.3">
    <path d="M 0,0 L 2,120 M 0,20 C -15,30 -20,45 -22,60 M 0,20 C 15,30 20,45 22,60 M 0,40 C -18,50 -23,65 -25,80 M 0,40 C 18,50 23,65 25,80 M 0,60 C -20,70 -25,85 -27,100 M 0,60 C 20,70 25,85 27,100" stroke="#8b7355" stroke-width="2" fill="none"/>
  </g>
  
  <!-- M字母 - 简化的手写体风格 -->
  <path d="M50 80 C48 78 48 85 50 120 C52 130 55 135 58 140 L62 145 C65 148 70 150 75 150 C80 150 85 148 88 145 L92 140 C95 135 98 130 100 120 C102 85 102 78 100 80 C102 82 105 85 108 120 C110 130 113 135 116 140 L120 145 C123 148 128 150 133 150 C138 150 143 148 146 145 L150 140 C153 135 156 130 158 120 C160 85 160 78 158 80" stroke="#2c1810" stroke-width="3.5" fill="none" stroke-linecap="round"/>
  
  <!-- u字母 - 简化版 -->
  <path d="M120 100 C118 98 118 105 120 130 C122 140 125 145 130 148 C135 151 142 151 147 148 C152 145 155 140 157 130 C159 105 159 98 157 100" stroke="#5a3e2a" stroke-width="3" fill="none" stroke-linecap="round"/>
</svg>