<svg width="32" height="32" viewBox="0 0 32 32" xmlns="http://www.w3.org/2000/svg">
  <defs>
    <linearGradient id="bg" x1="0%" y1="0%" x2="100%" y2="100%">
      <stop offset="0%" style="stop-color:#f3e8ff"/>
      <stop offset="100%" style="stop-color:#e0e7ff"/>
    </linearGradient>
    <linearGradient id="purple" x1="0%" y1="0%" x2="100%" y2="100%">
      <stop offset="0%" style="stop-color:#8b5cf6"/>
      <stop offset="100%" style="stop-color:#6366f1"/>
    </linearGradient>
  </defs>
  
  <!-- Background -->
  <rect width="32" height="32" rx="6" fill="url(#bg)"/>
  
  <!-- Simplified Muse head -->
  <g transform="translate(8, 6)">
    <!-- Head outline -->
    <path d="M8 2 C10 2 12 4 12 7 C12 10 10 12 8 14 C6 12 4 10 4 7 C4 4 6 2 8 2 Z" 
          fill="none" stroke="url(#purple)" stroke-width="1.5" stroke-linecap="round"/>
    
    <!-- Hair/leaves -->
    <path d="M6 4 C5 2 7 1 8 3 C9 1 11 2 10 4 C11 3 12 4 11 5" 
          fill="none" stroke="url(#purple)" stroke-width="1.2" stroke-linecap="round"/>
    
    <!-- Star -->
    <circle cx="13" cy="3" r="1" fill="url(#purple)"/>
    <path d="M13 2 L13 4 M12 3 L14 3" stroke="url(#purple)" stroke-width="0.8" stroke-linecap="round"/>
    
    <!-- Eye -->
    <circle cx="8" cy="7" r="0.5" fill="url(#purple)"/>
  </g>
</svg>