<svg viewBox="0 0 64 64" xmlns="http://www.w3.org/2000/svg">
  <!-- 背景色 - 和原图一样的米色 -->
  <rect x="0" y="0" width="64" height="64" rx="12" fill="#e8d5c4"/>
  
  <!-- 羽毛背景 - 更接近原图的位置和样式 -->
  <g transform="translate(35, 5) rotate(-15) scale(0.45)" opacity="0.18">
    <path d="M 0,0 
             C -2,10 -3,20 -3,30
             C -3,50 -2,70 0,90
             C 2,70 3,50 3,30
             C 3,20 2,10 0,0 Z
             M -3,20 C -8,22 -12,25 -15,30
             M 3,20 C 8,22 12,25 15,30
             M -3,35 C -8,37 -12,40 -15,45
             M 3,35 C 8,37 12,40 15,45
             M -3,50 C -8,52 -12,55 -15,60
             M 3,50 C 8,52 12,55 15,60
             M -3,65 C -8,67 -10,70 -12,75
             M 3,65 C 8,67 10,70 12,75" 
          fill="#b5a394" 
          stroke="none"/>
  </g>
  
  <!-- 手写体 M - 更粗的笔画，类似原图 -->
  <path d="M8 28 
           C6 26 6 30 8 45
           C9 50 11 52 14 53
           C17 54 20 53 22 50
           L25 45
           C27 40 28 35 28 32
           C28 30 28 28 30 28
           C32 28 32 30 32 32
           C32 35 33 40 35 45
           L38 50
           C40 53 43 54 46 53
           C49 52 51 50 52 45
           C54 30 54 26 52 28" 
        fill="#1a1a1a" 
        stroke="none"/>
  
  <!-- 手写体 u - 溢出边界，棕色，更接近原图 -->
  <path d="M42 35
           C40 33 40 37 42 48
           C43 52 45 54 48 55
           C51 56 55 55 58 53
           C61 51 63 48 64 44
           C65 37 65 33 67 35" 
        fill="#6b5445" 
        stroke="none"/>
</svg>