<svg id="Capa_1" enable-background="new 0 0 512 512" height="512" viewBox="0 0 512 512" width="512" xmlns="http://www.w3.org/2000/svg"><g><path d="m435.899 425.099s-88.022-21.516-106.564-24.605c-40.276-6.711-84.538-16.806-131.962-45.754-2.438-1.488 44.116 5.666 66.624-5.507-24.169-2.598-90.41-13.26-112.178-27.346-6.518-4.217-15.29-8.617-23.528-17.489-13.082-14.088-19.475-28.888-27.558-47.304-.69-1.573.639-3.285 2.332-2.994 4.173.719 11.144 1.332 18.877-.438-10.196-5.37-20.271-11.75-28.968-20.293-1.632-1.603-2.831-3.592-3.51-5.777-14.211-45.716-19.82-110.841-19.078-184.507 0 0 25.214 101.539 137.506 147.188 21.99 8.939 44.035 19.269 67.447 30.65 8.978 4.365 23.503 28.368 33.865 61.997 9.802-4.524 6.799-27.09 9.857-34.849 1.117-2.835 10.976 5.59 10.976 5.59 11.87 8.872 23.758 19.196 35.568 31.496 53.964 56.204 70.294 139.942 70.294 139.942z" fill="#75b7f2"/><path d="m435.898 425.099c-.004-.023-16.336-83.745-70.294-139.942-11.81-12.3-23.698-22.624-35.568-31.496 0 0-9.859-8.424-10.976-5.589-1.646 4.176-1.538 12.641-2.615 20.274 29.13 42.446 38.531 90.646 38.531 90.646s-71.399-17.453-86.44-19.958c-32.67-5.444-68.573-13.632-107.042-37.113-1.978-1.207 35.785 4.596 54.042-4.467-19.605-2.107-73.337-10.756-90.994-22.182-5.287-3.421-12.402-6.99-19.085-14.187-1.725-1.857-3.295-3.733-4.759-5.632-.194.5-.214 1.078.033 1.641 8.083 18.416 14.476 33.216 27.558 47.304 8.239 8.873 17.011 13.272 23.528 17.489 21.768 14.087 88.009 24.749 112.179 27.346-22.508 11.172-69.062 4.019-66.624 5.507 47.425 28.948 91.686 39.043 131.962 45.754 18.542 3.089 106.559 24.604 106.564 24.605z" fill="#8289f3"/><path d="m494.734 497.857c-23.402-52.446-63.365-100.111-121.969-145.451 2.086-21.937-8.864-67.93-9.347-69.944-.777-3.237-4.028-5.231-7.268-4.454-3.237.777-5.231 4.03-4.454 7.268 2.716 11.317 8.691 40.044 9.251 58.206-35.427-26.139-73.548-49.077-110.453-71.27-8.766-5.271-17.676-10.631-26.59-16.056-16.294-27.283-24.133-67.298-24.213-67.714-.629-3.269-3.789-5.407-7.057-4.781-3.268.629-5.409 3.787-4.781 7.056.276 1.435 5.457 27.935 16.479 53.391-2.828-1.763-5.65-3.531-8.452-5.304-16.682-10.556-35.812-23.094-51.716-38.334-24.231-23.216-52.025-80.463-56.596-136.08-1.934-23.531 2.986-42.79 6.198-50.46 2.143-5.118-.268-11.005-5.385-13.147-5.116-2.147-11.004.268-13.147 5.385-1.079 2.577-10.463 26.147-7.691 59.868 5.149 62.642 36.157 123.491 62.72 148.942 17.247 16.526 37.368 29.727 54.873 40.804 18.186 11.508 36.903 22.763 55.004 33.649 2.521 1.516 5.048 3.036 7.58 4.56-11.913-1.025-23.416-.761-34.216-.508-9.337.217-18.158.422-26.585-.161-16.859-1.169-62.418-5.135-62.876-5.175-3.317-.288-6.239 2.166-6.528 5.482s2.166 6.239 5.482 6.528c.46.04 46.124 4.014 63.089 5.191 8.983.623 18.075.411 27.7.187 21.234-.494 43.164-1.005 65.535 7.674 24.667 15.234 49.201 31.136 72.32 48.369 25.343 18.891 47.2 38.122 65.767 57.886-21.946 8.806-51.496 13.046-81.44 11.448-5.543-.278-10.271 3.958-10.566 9.499s3.958 10.271 9.498 10.566c4.435.235 8.869.351 13.282.351 31.076 0 61.116-5.765 83.274-16.065 19.083 22.745 33.982 46.244 44.931 70.783 1.668 3.737 5.336 5.955 9.18 5.955 1.368 0 2.758-.282 4.088-.875 5.065-2.261 7.339-8.202 5.079-13.269z" fill="#646ce8"/><path d="m49.38 338.752-8.252 23.204c-.353.993-1.053 1.781-1.935 2.178l-20.616 9.288c-2.913 1.312-2.913 5.953 0 7.265l20.616 9.288c.883.398 1.582 1.185 1.935 2.178l8.252 23.204c1.166 3.278 5.289 3.278 6.455 0l8.252-23.204c.353-.993 1.053-1.781 1.936-2.178l20.616-9.288c2.912-1.312 2.912-5.953 0-7.265l-20.616-9.288c-.883-.398-1.582-1.185-1.936-2.178l-8.252-23.204c-1.166-3.278-5.289-3.278-6.455 0z" fill="#98e8f2"/><path d="m212.231 17.891-6.121 17.212c-.262.737-.781 1.321-1.436 1.616l-15.293 6.89c-2.16.973-2.16 4.416 0 5.389l15.293 6.89c.655.295 1.173.879 1.436 1.616l6.121 17.212c.865 2.432 3.923 2.432 4.788 0l6.121-17.212c.262-.737.781-1.321 1.436-1.616l15.292-6.89c2.16-.974 2.16-4.416 0-5.389l-15.292-6.89c-.655-.295-1.174-.879-1.436-1.616l-6.121-17.212c-.865-2.432-3.924-2.432-4.788 0z" fill="#98e8f2"/><g fill="#75b7f2"><path d="m379.613 174.759c0 9.952 8.067 18.019 18.019 18.019s18.019-8.067 18.019-18.019-8.067-18.019-18.019-18.02c-9.952.001-18.019 8.068-18.019 18.02z"/><path d="m279.973 149.205c0 4.161 3.373 7.535 7.534 7.535s7.535-3.373 7.535-7.535c0-4.161-3.373-7.535-7.535-7.535-4.161.001-7.534 3.374-7.534 7.535z"/></g></g></svg>